<?xml version="1.0" standalone="no"?>
<!DOCTYPE svg PUBLIC "-//W3C//DTD SVG 20010904//EN"
 "http://www.w3.org/TR/2001/REC-SVG-20010904/DTD/svg10.dtd">
<svg version="1.0" xmlns="http://www.w3.org/2000/svg"
 width="364.000000pt" height="364.000000pt" viewBox="0 0 364.000000 364.000000"
 preserveAspectRatio="xMidYMid meet">
<metadata>
Created by potrace 1.14, written by Peter Selinger 2001-2017
</metadata>
<g transform="translate(0.000000,364.000000) scale(0.100000,-0.100000)"
fill="#000000" stroke="none">
<path d="M1695 3594 c-523 -41 -991 -297 -1303 -715 -362 -485 -450 -1123
-235 -1693 127 -338 380 -650 692 -855 121 -80 342 -181 482 -221 l29 -9 0
210 c0 115 1 212 3 215 3 8 -5 12 -133 73 -373 175 -654 532 -741 941 -29 139
-32 391 -6 525 19 94 44 189 57 215 5 8 23 50 41 94 140 337 442 609 814 735
261 88 576 88 847 0 134 -43 293 -127 412 -218 63 -48 239 -238 288 -311 152
-228 228 -480 228 -760 0 -163 -18 -283 -64 -422 -115 -351 -357 -630 -687
-793 -58 -28 -115 -54 -127 -57 -22 -6 -22 -8 -22 -227 0 -122 2 -221 4 -221
22 0 236 83 326 127 462 224 809 650 940 1155 52 200 66 491 35 702 -87 582
-464 1088 -999 1341 -278 132 -588 191 -881 169z"/>
<path d="M1419 2773 c-57 -35 -59 -45 -59 -356 l0 -286 105 -3 105 -3 0 297 0
298 -27 29 c-35 37 -88 47 -124 24z"/>
<path d="M2109 2765 c-45 -24 -49 -57 -49 -359 l0 -281 102 0 c57 0 105 3 108
7 3 3 3 140 0 303 l-5 297 -28 24 c-32 28 -87 31 -128 9z"/>
<path d="M1162 2048 c-8 -8 -12 -46 -12 -106 0 -85 2 -94 20 -99 19 -5 20 -14
20 -237 0 -249 7 -314 46 -418 32 -84 70 -141 142 -213 54 -54 192 -145 219
-145 10 0 13 -81 13 -389 l0 -389 114 -7 c63 -4 156 -3 207 1 l94 9 3 385 2
385 72 35 c138 68 260 211 312 365 17 52 21 95 25 332 5 246 8 273 24 285 15
12 17 27 15 113 l-3 100 -650 3 c-498 2 -654 -1 -663 -10z m709 -481 c-28 -90
-51 -167 -51 -171 0 -3 45 -6 100 -6 69 0 100 -4 100 -12 0 -6 -17 -34 -38
-62 -22 -28 -92 -124 -156 -214 -65 -90 -120 -162 -122 -159 -2 2 16 82 41
178 25 96 45 175 45 177 0 1 -40 2 -90 2 -49 0 -90 3 -90 8 0 4 54 81 120 172
65 91 134 186 152 211 18 26 35 45 36 43 2 -1 -19 -77 -47 -167z"/>
</g>
</svg>
